<?xml version="1.0" encoding="UTF-8" standalone="no"?>
<!-- Generator: Adobe Illustrator 19.0.0, SVG Export Plug-In . SVG Version: 6.00 Build 0)  -->

<svg
   xmlns:dc="http://purl.org/dc/elements/1.1/"
   xmlns:cc="http://creativecommons.org/ns#"
   xmlns:rdf="http://www.w3.org/1999/02/22-rdf-syntax-ns#"
   xmlns:svg="http://www.w3.org/2000/svg"
   xmlns="http://www.w3.org/2000/svg"
   xmlns:sodipodi="http://sodipodi.sourceforge.net/DTD/sodipodi-0.dtd"
   xmlns:inkscape="http://www.inkscape.org/namespaces/inkscape"
   version="1.1"
   id="Layer_1"
   x="0px"
   y="0px"
   viewBox="0 0 20 20"
   xml:space="preserve"
   sodipodi:docname="icon-linkedin.svg"
   width="20"
   height="20"
   inkscape:export-filename="/home/pc/Public/rbl-art-designs/main-website/phantom-manual-w-search/src/images/icon-linkedin.png"
   inkscape:export-xdpi="96"
   inkscape:export-ydpi="96"
   inkscape:version="0.92.5 (2060ec1f9f, 2020-04-08)"><metadata
   id="metadata39"><rdf:RDF><cc:Work
       rdf:about=""><dc:format>image/svg+xml</dc:format><dc:type
         rdf:resource="http://purl.org/dc/dcmitype/StillImage" /><dc:title></dc:title></cc:Work></rdf:RDF></metadata><defs
   id="defs37" /><sodipodi:namedview
   pagecolor="#ffffff"
   bordercolor="#666666"
   borderopacity="1"
   objecttolerance="10"
   gridtolerance="10"
   guidetolerance="10"
   inkscape:pageopacity="0"
   inkscape:pageshadow="2"
   inkscape:window-width="1920"
   inkscape:window-height="1016"
   id="namedview35"
   showgrid="false"
   fit-margin-top="0"
   fit-margin-left="0"
   fit-margin-right="0"
   fit-margin-bottom="0"
   inkscape:zoom="1.6458606"
   inkscape:cx="142.39321"
   inkscape:cy="20.876236"
   inkscape:window-x="0"
   inkscape:window-y="1114"
   inkscape:window-maximized="1"
   inkscape:current-layer="Layer_1" />
<path
   style="fill:#0077b7;stroke-width:1"
   d="M 18.190837,0 H 1.8091623 C 0.80999999,0 0,0.81 0,1.80916 V 18.19079 C 0,19.19 0.80999999,20 1.8091623,20 H 18.190785 C 19.19,20 20,19.19 20,18.19079 V 1.80916 C 20,0.81 19.19,0 18.190837,0 Z M 6.1888481,17.26932 c 0,0.29078 -0.2357068,0.52649 -0.5264922,0.52649 H 3.4212041 c -0.2907853,0 -0.5264921,-0.23571 -0.5264921,-0.52649 V 7.8745 c 0,-0.29078 0.2357068,-0.52649 0.5264921,-0.52649 h 2.2411518 c 0.2907854,0 0.5264922,0.23571 0.5264922,0.52649 z M 4.54178,6.46241 c -1.1758638,0 -2.1291099,-0.95325 -2.1291099,-2.12911 0,-1.17587 0.9532461,-2.12911 2.1291099,-2.12911 1.1758639,0 2.1291099,0.95324 2.1291099,2.12911 0,1.17586 -0.9531937,2.12911 -2.1291099,2.12911 z m 13.359267,10.84932 c 0,0.26733 -0.216754,0.48408 -0.484084,0.48408 h -2.404921 c -0.26733,0 -0.484084,-0.21675 -0.484084,-0.48408 v -4.4067 c 0,-0.65739 0.192827,-2.88068 -1.717958,-2.88068 -1.482147,0 -1.782775,1.52178 -1.843142,2.20471 v 5.08267 c 0,0.26733 -0.216701,0.48408 -0.484083,0.48408 H 8.1568061 c -0.2673298,0 -0.4840837,-0.21675 -0.4840837,-0.48408 V 7.83209 c 0,-0.26733 0.2167539,-0.48408 0.4840837,-0.48408 h 2.3259689 c 0.26733,0 0.484083,0.21675 0.484083,0.48408 v 0.81964 c 0.549582,-0.82477 1.366335,-1.46136 3.105341,-1.46136 3.85089,0 3.828848,3.59769 3.828848,5.57445 z"
   id="path2"
   inkscape:connector-curvature="0" />
<g
   id="g4"
   transform="translate(0,-362)">
</g>
<g
   id="g6"
   transform="translate(0,-362)">
</g>
<g
   id="g8"
   transform="translate(0,-362)">
</g>
<g
   id="g10"
   transform="translate(0,-362)">
</g>
<g
   id="g12"
   transform="translate(0,-362)">
</g>
<g
   id="g14"
   transform="translate(0,-362)">
</g>
<g
   id="g16"
   transform="translate(0,-362)">
</g>
<g
   id="g18"
   transform="translate(0,-362)">
</g>
<g
   id="g20"
   transform="translate(0,-362)">
</g>
<g
   id="g22"
   transform="translate(0,-362)">
</g>
<g
   id="g24"
   transform="translate(0,-362)">
</g>
<g
   id="g26"
   transform="translate(0,-362)">
</g>
<g
   id="g28"
   transform="translate(0,-362)">
</g>
<g
   id="g30"
   transform="translate(0,-362)">
</g>
<g
   id="g32"
   transform="translate(0,-362)">
</g>
</svg>