<?xml version="1.0" encoding="UTF-8" standalone="no"?>
<svg
   xmlns:dc="http://purl.org/dc/elements/1.1/"
   xmlns:cc="http://creativecommons.org/ns#"
   xmlns:rdf="http://www.w3.org/1999/02/22-rdf-syntax-ns#"
   xmlns:svg="http://www.w3.org/2000/svg"
   xmlns="http://www.w3.org/2000/svg"
   xmlns:sodipodi="http://sodipodi.sourceforge.net/DTD/sodipodi-0.dtd"
   xmlns:inkscape="http://www.inkscape.org/namespaces/inkscape"
   height="235.40286"
   width="933.0769"
   viewBox="-18.537885 -7.5445 124.92474 13.319977"
   version="1.1"
   id="svg14"
   sodipodi:docname="paypal-logo-svg.svg"
   inkscape:version="0.92.5 (2060ec1f9f, 2020-04-08)">
  <metadata
     id="metadata20">
    <rdf:RDF>
      <cc:Work
         rdf:about="">
        <dc:format>image/svg+xml</dc:format>
        <dc:type
           rdf:resource="http://purl.org/dc/dcmitype/StillImage" />
        <dc:title></dc:title>
      </cc:Work>
    </rdf:RDF>
  </metadata>
  <defs
     id="defs18" />
  <sodipodi:namedview
     pagecolor="#ffffff"
     bordercolor="#666666"
     borderopacity="1"
     objecttolerance="10"
     gridtolerance="10"
     guidetolerance="10"
     inkscape:pageopacity="0"
     inkscape:pageshadow="2"
     inkscape:window-width="1920"
     inkscape:window-height="1016"
     id="namedview16"
     showgrid="false"
     fit-margin-top="5"
     fit-margin-left="5"
     fit-margin-right="5"
     fit-margin-bottom="5"
     inkscape:zoom="0.78589844"
     inkscape:cx="466.53779"
     inkscape:cy="117.70144"
     inkscape:window-x="0"
     inkscape:window-y="34"
     inkscape:window-maximized="1"
     inkscape:current-layer="svg14" />
  <g
     id="g28"
     transform="translate(-17.868556,-15.973512)">
    <path
       id="path2"
       d="m 46.211,6.749 h -6.839 a 0.95,0.95 0 0 0 -0.939,0.802 l -2.766,17.537 a 0.57,0.57 0 0 0 0.564,0.658 h 3.265 a 0.95,0.95 0 0 0 0.939,-0.803 l 0.746,-4.73 a 0.95,0.95 0 0 1 0.938,-0.803 h 2.165 c 4.505,0 7.105,-2.18 7.784,-6.5 C 52.374,11.02 52.081,9.535 51.196,8.495 50.224,7.353 48.5,6.749 46.211,6.749 Z M 47,13.154 c -0.374,2.454 -2.249,2.454 -4.062,2.454 h -1.032 l 0.724,-4.583 a 0.57,0.57 0 0 1 0.563,-0.481 h 0.473 c 1.235,0 2.4,0 3.002,0.704 0.359,0.42 0.469,1.044 0.332,1.906 z m 19.654,-0.079 h -3.275 a 0.57,0.57 0 0 0 -0.563,0.481 l -0.145,0.916 -0.229,-0.332 c -0.709,-1.029 -2.29,-1.373 -3.868,-1.373 -3.619,0 -6.71,2.741 -7.312,6.586 -0.313,1.918 0.132,3.752 1.22,5.031 0.998,1.176 2.426,1.666 4.125,1.666 2.916,0 4.533,-1.875 4.533,-1.875 l -0.146,0.91 a 0.57,0.57 0 0 0 0.562,0.66 h 2.95 a 0.95,0.95 0 0 0 0.939,-0.803 l 1.77,-11.209 a 0.568,0.568 0 0 0 -0.561,-0.658 z m -4.565,6.374 c -0.316,1.871 -1.801,3.127 -3.695,3.127 -0.951,0 -1.711,-0.305 -2.199,-0.883 -0.484,-0.574 -0.668,-1.391 -0.514,-2.301 0.295,-1.855 1.805,-3.152 3.67,-3.152 0.93,0 1.686,0.309 2.184,0.892 0.499,0.589 0.697,1.411 0.554,2.317 z m 22.007,-6.374 h -3.291 a 0.954,0.954 0 0 0 -0.787,0.417 l -4.539,6.686 -1.924,-6.425 a 0.953,0.953 0 0 0 -0.912,-0.678 h -3.234 a 0.57,0.57 0 0 0 -0.541,0.754 l 3.625,10.638 -3.408,4.811 a 0.57,0.57 0 0 0 0.465,0.9 h 3.287 a 0.949,0.949 0 0 0 0.781,-0.408 l 10.946,-15.8 a 0.57,0.57 0 0 0 -0.468,-0.895 z"
       inkscape:connector-curvature="0"
       style="fill:#253b80" />
    <path
       id="path4"
       d="m 94.992,6.749 h -6.84 a 0.95,0.95 0 0 0 -0.938,0.802 l -2.766,17.537 a 0.569,0.569 0 0 0 0.562,0.658 h 3.51 a 0.665,0.665 0 0 0 0.656,-0.562 l 0.785,-4.971 a 0.95,0.95 0 0 1 0.938,-0.803 h 2.164 c 4.506,0 7.105,-2.18 7.785,-6.5 0.307,-1.89 0.012,-3.375 -0.873,-4.415 C 99.004,7.353 97.281,6.749 94.992,6.749 Z m 0.789,6.405 c -0.373,2.454 -2.248,2.454 -4.062,2.454 h -1.031 l 0.725,-4.583 a 0.568,0.568 0 0 1 0.562,-0.481 h 0.473 c 1.234,0 2.4,0 3.002,0.704 0.359,0.42 0.468,1.044 0.331,1.906 z m 19.653,-0.079 h -3.273 a 0.567,0.567 0 0 0 -0.562,0.481 l -0.145,0.916 -0.23,-0.332 c -0.709,-1.029 -2.289,-1.373 -3.867,-1.373 -3.619,0 -6.709,2.741 -7.311,6.586 -0.312,1.918 0.131,3.752 1.219,5.031 1,1.176 2.426,1.666 4.125,1.666 2.916,0 4.533,-1.875 4.533,-1.875 l -0.146,0.91 a 0.57,0.57 0 0 0 0.564,0.66 h 2.949 a 0.95,0.95 0 0 0 0.938,-0.803 l 1.771,-11.209 a 0.571,0.571 0 0 0 -0.565,-0.658 z m -4.565,6.374 c -0.314,1.871 -1.801,3.127 -3.695,3.127 -0.949,0 -1.711,-0.305 -2.199,-0.883 -0.484,-0.574 -0.666,-1.391 -0.514,-2.301 0.297,-1.855 1.805,-3.152 3.67,-3.152 0.93,0 1.686,0.309 2.184,0.892 0.501,0.589 0.699,1.411 0.554,2.317 z m 8.426,-12.219 -2.807,17.858 a 0.569,0.569 0 0 0 0.562,0.658 h 2.822 c 0.469,0 0.867,-0.34 0.939,-0.803 l 2.768,-17.536 a 0.57,0.57 0 0 0 -0.562,-0.659 h -3.16 a 0.571,0.571 0 0 0 -0.562,0.482 z"
       inkscape:connector-curvature="0"
       style="fill:#179bd7" />
    <path
       id="path6"
       d="M 7.266,29.154 7.789,25.832 6.624,25.805 H 1.061 L 4.927,1.292 A 0.316,0.316 0 0 1 5.241,1.024 h 9.38 c 3.114,0 5.263,0.648 6.385,1.927 0.526,0.6 0.861,1.227 1.023,1.917 0.17,0.724 0.173,1.589 0.007,2.644 l -0.012,0.077 v 0.676 l 0.526,0.298 a 3.69,3.69 0 0 1 1.065,0.812 c 0.45,0.513 0.741,1.165 0.864,1.938 0.127,0.795 0.085,1.741 -0.123,2.812 -0.24,1.232 -0.628,2.305 -1.152,3.183 a 6.547,6.547 0 0 1 -1.825,2 c -0.696,0.494 -1.523,0.869 -2.458,1.109 -0.906,0.236 -1.939,0.355 -3.072,0.355 h -0.73 c -0.522,0 -1.029,0.188 -1.427,0.525 a 2.21,2.21 0 0 0 -0.744,1.328 l -0.055,0.299 -0.924,5.855 -0.042,0.215 c -0.011,0.068 -0.03,0.102 -0.058,0.125 a 0.155,0.155 0 0 1 -0.096,0.035 z"
       inkscape:connector-curvature="0"
       style="fill:#253b80" />
    <path
       id="path8"
       d="m 23.048,7.667 c -0.028,0.179 -0.06,0.362 -0.096,0.55 -1.237,6.351 -5.469,8.545 -10.874,8.545 H 9.326 c -0.661,0 -1.218,0.48 -1.321,1.132 L 6.596,26.83 6.197,29.363 a 0.704,0.704 0 0 0 0.695,0.814 h 4.881 c 0.578,0 1.069,-0.42 1.16,-0.99 l 0.048,-0.248 0.919,-5.832 0.059,-0.32 c 0.09,-0.572 0.582,-0.992 1.16,-0.992 h 0.73 c 4.729,0 8.431,-1.92 9.513,-7.476 0.452,-2.321 0.218,-4.259 -0.978,-5.622 a 4.667,4.667 0 0 0 -1.336,-1.03 z"
       inkscape:connector-curvature="0"
       style="fill:#179bd7" />
    <path
       id="path10"
       d="M 21.754,7.151 A 9.757,9.757 0 0 0 20.551,6.884 15.284,15.284 0 0 0 18.125,6.707 H 10.773 A 1.172,1.172 0 0 0 9.614,7.699 L 8.05,17.605 8.005,17.894 a 1.336,1.336 0 0 1 1.321,-1.132 h 2.752 c 5.405,0 9.637,-2.195 10.874,-8.545 0.037,-0.188 0.068,-0.371 0.096,-0.55 A 6.594,6.594 0 0 0 22.031,7.238 9.045,9.045 0 0 0 21.754,7.151 Z"
       inkscape:connector-curvature="0"
       style="fill:#222d65" />
    <path
       id="path12"
       d="m 9.614,7.699 a 1.169,1.169 0 0 1 1.159,-0.991 h 7.352 c 0.871,0 1.684,0.057 2.426,0.177 a 9.757,9.757 0 0 1 1.481,0.353 c 0.365,0.121 0.704,0.264 1.017,0.429 C 23.417,5.32 23.046,3.722 21.777,2.275 20.378,0.682 17.853,0 14.622,0 H 5.242 C 4.582,0 4.019,0.48 3.917,1.133 L 0.01,25.898 A 0.806,0.806 0 0 0 0.805,26.83 H 6.596 L 8.05,17.605 Z"
       inkscape:connector-curvature="0"
       style="fill:#253b80" />
  </g>
</svg>
