<?xml version="1.0" encoding="UTF-8" standalone="no"?>
<svg
   xmlns:dc="http://purl.org/dc/elements/1.1/"
   xmlns:cc="http://creativecommons.org/ns#"
   xmlns:rdf="http://www.w3.org/1999/02/22-rdf-syntax-ns#"
   xmlns:svg="http://www.w3.org/2000/svg"
   xmlns="http://www.w3.org/2000/svg"
   xmlns:sodipodi="http://sodipodi.sourceforge.net/DTD/sodipodi-0.dtd"
   xmlns:inkscape="http://www.inkscape.org/namespaces/inkscape"
   height="286.84854"
   width="933.0769"
   viewBox="-83.76405 -41.87075 564.47662 90.079226"
   version="1.1"
   id="svg4"
   sodipodi:docname="spotify-logo-svg.svg"
   inkscape:version="0.92.5 (2060ec1f9f, 2020-04-08)">
  <metadata
     id="metadata10">
    <rdf:RDF>
      <cc:Work
         rdf:about="">
        <dc:format>image/svg+xml</dc:format>
        <dc:type
           rdf:resource="http://purl.org/dc/dcmitype/StillImage" />
        <dc:title></dc:title>
      </cc:Work>
    </rdf:RDF>
  </metadata>
  <defs
     id="defs8" />
  <sodipodi:namedview
     pagecolor="#ffffff"
     bordercolor="#666666"
     borderopacity="1"
     objecttolerance="10"
     gridtolerance="10"
     guidetolerance="10"
     inkscape:pageopacity="0"
     inkscape:pageshadow="2"
     inkscape:window-width="1920"
     inkscape:window-height="1016"
     id="namedview6"
     showgrid="false"
     fit-margin-top="5"
     fit-margin-left="5"
     fit-margin-right="5"
     fit-margin-bottom="5"
     inkscape:zoom="0.78589844"
     inkscape:cx="235.5926"
     inkscape:cy="206.71512"
     inkscape:window-x="0"
     inkscape:window-y="34"
     inkscape:window-maximized="1"
     inkscape:current-layer="g3716" />
  <g
     id="g3716"
     transform="translate(-80.739237,-79.408914)">
    <path
       id="path2"
       d="M 83.743,0 C 37.494,0 0,37.493 0,83.742 c 0,46.251 37.494,83.741 83.743,83.741 46.254,0 83.744,-37.49 83.744,-83.741 0,-46.246 -37.49,-83.738 -83.745,-83.738 z m 38.404,120.78 a 5.217,5.217 0 0 1 -7.18,1.73 C 95.305,110.5 70.553,107.78 41.403,114.44 a 5.222,5.222 0 0 1 -6.249,-3.93 5.213,5.213 0 0 1 3.926,-6.25 c 31.9,-7.288 59.263,-4.15 81.337,9.34 2.46,1.51 3.24,4.72 1.73,7.18 z m 10.25,-22.802 c -1.89,3.072 -5.91,4.042 -8.98,2.152 -22.51,-13.836 -56.823,-17.843 -83.448,-9.761 -3.453,1.043 -7.1,-0.903 -8.148,-4.35 a 6.538,6.538 0 0 1 4.354,-8.143 c 30.413,-9.228 68.222,-4.758 94.072,11.127 3.07,1.89 4.04,5.91 2.15,8.976 z m 0.88,-23.744 C 106.287,58.203 61.757,56.729 35.988,64.55 31.85,65.805 27.474,63.469 26.22,59.331 a 7.835,7.835 0 0 1 5.221,-9.771 c 29.581,-8.98 78.756,-7.245 109.83,11.202 a 7.823,7.823 0 0 1 2.74,10.733 c -2.2,3.722 -7.02,4.949 -10.73,2.739 z m 94.56,3.072 c -14.46,-3.448 -17.03,-5.868 -17.03,-10.953 0,-4.804 4.52,-8.037 11.25,-8.037 6.52,0 12.98,2.455 19.76,7.509 0.2,0.153 0.46,0.214 0.71,0.174 a 0.933,0.933 0 0 0 0.63,-0.386 l 7.06,-9.952 a 0.95,0.95 0 0 0 -0.18,-1.288 c -8.07,-6.473 -17.15,-9.62 -27.77,-9.62 -15.61,0 -26.52,9.369 -26.52,22.774 0,14.375 9.41,19.465 25.67,23.394 13.83,3.187 16.17,5.857 16.17,10.629 0,5.29 -4.72,8.58 -12.32,8.58 -8.44,0 -15.33,-2.85 -23.03,-9.51 a 0.98,0.98 0 0 0 -0.69,-0.23 c -0.26,0.02 -0.49,0.14 -0.65,0.33 l -7.92,9.42 c -0.33,0.4 -0.29,0.98 0.09,1.32 8.96,8 19.98,12.22 31.88,12.22 16.82,0 27.69,-9.19 27.69,-23.42 0.03,-12.007 -7.16,-18.657 -24.77,-22.941 z m 62.86,-14.26 c -7.29,0 -13.27,2.872 -18.21,8.757 v -6.624 a 0.945,0.945 0 0 0 -0.94,-0.949 h -12.95 c -0.52,0 -0.94,0.426 -0.94,0.949 v 73.601 c 0,0.52 0.42,0.95 0.94,0.95 h 12.95 c 0.52,0 0.94,-0.43 0.94,-0.95 v -23.23 c 4.94,5.53 10.92,8.24 18.21,8.24 13.55,0 27.27,-10.43 27.27,-30.369 0.02,-19.943 -13.7,-30.376 -27.26,-30.376 z m 12.21,30.375 c 0,10.149 -6.25,17.239 -15.21,17.239 -8.85,0 -15.53,-7.41 -15.53,-17.239 0,-9.83 6.68,-17.238 15.53,-17.238 8.81,-0.001 15.21,7.247 15.21,17.237 z m 50.21,-30.375 c -17.45,0 -31.12,13.436 -31.12,30.592 0,16.972 13.58,30.262 30.91,30.262 17.51,0 31.22,-13.39 31.22,-30.479 0,-17.031 -13.62,-30.373 -31.01,-30.373 z m 0,47.714 c -9.28,0 -16.28,-7.46 -16.28,-17.344 0,-9.929 6.76,-17.134 16.07,-17.134 9.34,0 16.38,7.457 16.38,17.351 0,9.927 -6.8,17.127 -16.17,17.127 z m 68.27,-46.53 h -14.25 V 49.664 a 0.944,0.944 0 0 0 -0.94,-0.948 h -12.95 c -0.52,0 -0.95,0.426 -0.95,0.948 V 64.23 h -6.22 c -0.52,0 -0.94,0.426 -0.94,0.949 v 11.127 c 0,0.522 0.42,0.949 0.94,0.949 h 6.22 v 28.795 c 0,11.63 5.79,17.53 17.22,17.53 4.64,0 8.49,-0.96 12.12,-3.02 0.3,-0.16 0.48,-0.48 0.48,-0.82 v -10.6 c 0,-0.32 -0.17,-0.63 -0.45,-0.8 a 0.918,0.918 0 0 0 -0.92,-0.04 c -2.49,1.25 -4.9,1.83 -7.6,1.83 -4.15,0 -6.01,-1.89 -6.01,-6.11 V 77.26 h 14.25 c 0.52,0 0.94,-0.426 0.94,-0.949 V 65.185 a 0.918,0.918 0 0 0 -0.93,-0.949 z m 49.64,0.057 v -1.789 c 0,-5.263 2.02,-7.61 6.54,-7.61 2.7,0 4.87,0.536 7.3,1.346 0.3,0.094 0.61,0.047 0.85,-0.132 a 0.94,0.94 0 0 0 0.39,-0.77 v -10.91 a 0.937,0.937 0 0 0 -0.67,-0.909 c -2.56,-0.763 -5.84,-1.546 -10.76,-1.546 -11.95,0 -18.28,6.734 -18.28,19.467 v 2.74 h -6.22 c -0.52,0 -0.95,0.426 -0.95,0.948 v 11.184 c 0,0.522 0.43,0.949 0.95,0.949 h 6.22 v 44.405 c 0,0.53 0.43,0.95 0.95,0.95 h 12.94 c 0.53,0 0.95,-0.42 0.95,-0.95 V 77.258 h 12.09 l 18.52,44.402 c -2.1,4.66 -4.17,5.59 -6.99,5.59 -2.28,0 -4.69,-0.68 -7.14,-2.03 a 1.03,1.03 0 0 0 -0.75,-0.07 c -0.25,0.09 -0.46,0.27 -0.56,0.51 l -4.39,9.63 c -0.21,0.46 -0.03,0.99 0.41,1.23 4.58,2.48 8.71,3.54 13.82,3.54 9.56,0 14.85,-4.46 19.5,-16.44 l 22.46,-58.037 a 0.925,0.925 0 0 0 -0.1,-0.881 0.924,0.924 0 0 0 -0.77,-0.412 h -13.48 c -0.41,0 -0.77,0.257 -0.9,0.636 l -13.81,39.434 -15.12,-39.46 a 0.944,0.944 0 0 0 -0.88,-0.61 h -22.12 z m -28.78,-0.057 h -12.95 c -0.52,0 -0.95,0.426 -0.95,0.949 v 56.481 c 0,0.53 0.43,0.95 0.95,0.95 h 12.95 c 0.52,0 0.95,-0.42 0.95,-0.95 V 65.183 a 0.947,0.947 0 0 0 -0.95,-0.949 z m -6.4,-25.719 c -5.13,0 -9.29,4.152 -9.29,9.281 a 9.289,9.289 0 0 0 9.29,9.289 c 5.13,0 9.28,-4.157 9.28,-9.289 0,-5.128 -4.16,-9.281 -9.28,-9.281 z m 113.42,43.88 c -5.12,0 -9.11,-4.115 -9.11,-9.112 0,-4.997 4.04,-9.159 9.16,-9.159 5.12,0 9.11,4.114 9.11,9.107 0,4.997 -4.04,9.164 -9.16,9.164 z m 0.05,-17.365 c -4.67,0 -8.2,3.71 -8.2,8.253 0,4.541 3.51,8.201 8.15,8.201 4.67,0 8.2,-3.707 8.2,-8.253 0,-4.541 -3.51,-8.201 -8.15,-8.201 z m 2.02,9.138 2.58,3.608 h -2.18 l -2.32,-3.31 h -1.99 v 3.31 h -1.82 v -9.564 h 4.26 c 2.23,0 3.69,1.137 3.69,3.051 0.01,1.568 -0.9,2.526 -2.21,2.905 z m -1.54,-4.315 h -2.37 v 3.025 h 2.37 c 1.18,0 1.89,-0.579 1.89,-1.514 0,-0.984 -0.71,-1.511 -1.89,-1.511 z"
       inkscape:connector-curvature="0"
       style="fill:#1ed760" />
  </g>
</svg>
